# Blender v2.77 (sub 0) OBJ File: ''
# www.blender.org
mtllib corner.mtl
o Cube
v 1.000000 -1.000000 -1.000000
v -1.000000 -1.000000 1.000000
v -1.000000 -1.000000 -1.000000
v 1.000000 1.000000 -1.000000
v -1.000000 1.000000 1.000000
v -1.000000 1.000000 -1.000000
vt 0.6665 0.0001
vt 0.3335 0.3332
vt 0.6665 0.3332
vt 0.3332 0.3332
vt 0.0001 0.0001
vt 0.0001 0.3332
vt 0.3332 0.3335
vt 0.3332 0.6665
vt 0.0001 0.3335
vt 0.9999 0.0001
vt 0.6668 0.0001
vt 0.9999 0.3332
vt 0.0001 0.0001
vt 0.3335 0.0001
vt 0.3332 0.0001
vt 0.3332 0.0001
vn -1.0000 -0.0000 -0.0000
vn 0.0000 0.0000 -1.0000
vn 0.0000 1.0000 0.0000
vn 0.0000 -1.0000 0.0000
vn 0.7071 -0.0000 0.7071
usemtl Material.002
s off
f 2/1/1 6/2/1 3/3/1
f 1/4/2 6/5/2 4/6/2
f 6/7/3 5/8/3 4/9/3
f 3/10/4 1/11/4 2/12/4
f 5/13/5 1/4/5 4/6/5
f 2/1/1 5/14/1 6/2/1
f 1/4/2 3/15/2 6/5/2
f 5/13/5 2/16/5 1/4/5
