# Blender v2.77 (sub 0) OBJ File: ''
# www.blender.org
mtllib protruderight.mtl
o Cube
v -1.000000 -1.000000 -1.000000
v 1.000000 -1.000000 1.000000
v 1.000000 -1.000000 -1.000000
v -1.000000 1.000000 -1.000000
v 1.000000 1.000000 1.000000
v 1.000000 1.000000 -1.000000
v -1.000000 1.000000 0.550000
v -1.000000 -1.000000 0.550000
v -0.550000 1.000000 1.000000
v -0.550000 -1.000000 1.000000
vn 0.0000 -1.0000 0.0000
vn 1.0000 0.0000 0.0000
vn -1.0000 0.0000 0.0000
vn 0.0000 0.0000 -1.0000
vn 0.7071 -0.0000 -0.7071
usemtl Material
s off
f 6//1 9//1 7//1
f 4//2 8//2 1//2
f 2//3 6//3 3//3
f 9//4 2//4 10//4
f 7//5 10//5 8//5
f 7//1 4//1 6//1
f 6//1 5//1 9//1
f 4//2 7//2 8//2
f 2//3 5//3 6//3
f 9//4 5//4 2//4
f 7//5 9//5 10//5
