# Blender v2.77 (sub 0) OBJ File: ''
# www.blender.org
mtllib twofaces.mtl
o Cube
v 1.000000 -1.000000 -1.000000
v 1.000000 -1.000000 1.000000
v -1.000000 -1.000000 1.000000
v -1.000000 -1.000000 -1.000000
v 1.000000 1.000000 -1.00000
v 1.000000 1.000000 1.000000
v -1.000000 1.000000 1.000000
v -1.000000 1.000000 -1.000000
vn 0.0000 1.0000 0.0000
vn 0.0000 -0.0000 1.0000
vn 0.0000 0.0000 -1.0000
usemtl Material
s off
f 8//1 6//1 5//1
f 6//2 3//2 2//2
f 1//3 8//3 5//3
f 8//1 7//1 6//1
f 6//2 7//2 3//2
f 1//3 4//3 8//3
